# xmcd CD database file
#
# Track frame offsets:
#	150
#	19707
#	37095
#	58635
#	79955
#	98860
#	118170
#	129577
#	139570
#	154625
#	173300
#	189627
#
# Disc length: 2816 seconds
#
# Revision: 1
# Processed by: cddbd v1.5.2PL0 Copyright (c) Steve Scherf et al.
# Submitted via: CDex 1.70beta3
#
DISCID=990afe0c
DTITLE=TWINZER - FIFTH HARD CORE
DYEAR=1997
DGENRE=J-Rock
TTITLE0=TAXI ON THE HEAD
TTITLE1=BEST OF FEELING
TTITLE2=Alone Again
TTITLE3=HEY HELL ROCK'N ROLL
TTITLE4=LONELY WAY
TTITLE5=I・愛・哀
TTITLE6=どうにかなるさ
TTITLE7=BRAND-NEW SONG
TTITLE8=DIVING IN THE SKY
TTITLE9=I DON'T MIND GETTING WET
TTITLE10=MONDAY CRAZY
TTITLE11=Don't lose your way
EXTD=YEAR: 1997
EXTT0=
EXTT1=
EXTT2=
EXTT3=
EXTT4=
EXTT5=
EXTT6=
EXTT7=
EXTT8=
EXTT9=
EXTT10=
EXTT11=
PLAYORDER=
